<?xml version="1.0" encoding="utf-8"?>
<!-- Generator: Adobe Illustrator 23.0.0, SVG Export Plug-In . SVG Version: 6.00 Build 0)  -->
<svg version="1.1" id="Layer_1" xmlns="http://www.w3.org/2000/svg" xmlns:xlink="http://www.w3.org/1999/xlink" x="0px" y="0px"
	 viewBox="0 0 93 93" style="enable-background:new 0 0 93 93;" xml:space="preserve">
<style type="text/css">
	.st0{fill:#1D58EC;}
	.st1{fill:#FFFFFF;}
</style>
<g>
	<circle class="st0" cx="46.5" cy="46.5" r="46.5"/>
</g>
<path class="st1" d="M21.1,63l20.1-38.5l0.1-0.1v-0.1c0,0,0-0.1,0.1-0.1c0,0,0.1-0.1,0.1-0.1s0-0.1,0.1-0.1c0.1-0.1,0.2-0.2,0.2-0.2
	v-0.1l0.3-0.3l0.1-0.1l0.1-0.1v-0.1l0.1-0.1l0.1-0.1l0.1-0.1l0.1-0.1l0.3-0.3H43c0,0,0.1-0.1,0.1-0.1c0.1-0.1,0.1-0.1,0.1-0.1
	c0.1,0,0.2,0,0.3-0.1h0.1l0.1-0.1l0.4-0.2l0.1-0.1c0.7-0.2,1.4-0.3,2.1-0.4h0.2c0.7,0,1.4,0.2,2.1,0.4l0.3,0.1l0.1,0.1h0.1l0.1,0.1
	l0.1,0.1h0.1c0.1,0.1,0.2,0.1,0.2,0.1h0.1c0.1,0.1,0.3,0.2,0.4,0.3l0.1,0.1l0.5,0.4h0.1l0.1,0.1v0.1l0.1,0.1l0.1,0.1v0.1v0.1
	l0.1,0.1v0.1l0.1,0.1c0,0,0.1,0.1,0.1,0.2c0,0,0.1,0.1,0.1,0.1c0.1,0.1,0.1,0.2,0.1,0.3h0.1v0.1l0.1,0.1L71.9,63
	c0.8,1.4,0.9,3,0.4,4.6c-0.5,1.6-1.5,2.8-3,3.5c-1.4,0.7-3,0.8-4.5,0.4c-1.6-0.5-2.7-1.4-3.5-2.9L46.5,40.1L31.6,68.5
	c-0.7,1.4-1.9,2.4-3.5,3c-1.6,0.5-3.1,0.3-4.6-0.4c-1.4-0.8-2.4-2-2.9-3.5S20.3,64.4,21.1,63z M52.5,63v2.7c0,1.7-0.6,3.1-1.8,4.3
	c-1.2,1.2-2.6,1.7-4.2,1.7c-1.6,0-3-0.6-4.2-1.7c-1.2-1.2-1.7-2.6-1.7-4.3V63c0-1.7,0.6-3.1,1.7-4.3c1.2-1.2,2.6-1.7,4.2-1.7
	c1.7,0,3.1,0.6,4.2,1.7C51.9,59.9,52.5,61.3,52.5,63z"/>
</svg>
