<?xml version="1.0" encoding="utf-8"?>
<!-- Generator: Adobe Illustrator 23.0.0, SVG Export Plug-In . SVG Version: 6.00 Build 0)  -->
<svg version="1.1" id="Layer_1" xmlns="http://www.w3.org/2000/svg" xmlns:xlink="http://www.w3.org/1999/xlink" x="0px" y="0px"
	 viewBox="0 0 81 43" style="enable-background:new 0 0 81 43;" xml:space="preserve">
<style type="text/css">
	.st0{fill:#FFFFFF;}
</style>
<g>
	<path class="st0" d="M4.6,42.3l-2.1-8.1h1.1l1,4.1c0.2,1,0.5,2,0.6,2.8h0c0.1-0.8,0.4-1.8,0.7-2.8L7,34.2h1.1l1,4.1
		c0.2,1,0.4,1.9,0.6,2.8h0c0.2-0.9,0.4-1.8,0.6-2.8l1.1-4.1h1.1l-2.3,8.1H9l-1-4.2c-0.3-1-0.4-1.8-0.5-2.6h0
		c-0.1,0.8-0.3,1.6-0.6,2.6l-1.2,4.2H4.6z"/>
	<path class="st0" d="M34.5,34.2h1v7.2H39v0.9h-4.5V34.2z"/>
	<path class="st0" d="M47.3,34.2h1v7.2h3.5v0.9h-4.5V34.2z"/>
	<path class="st0" d="M64.4,38.5h-3.1v2.9h3.5v0.9h-4.5v-8.1h4.4v0.9h-3.3v2.6h3.1V38.5z"/>
	<path class="st0" d="M75,35.1h-2.5v-0.9h6v0.9h-2.5v7.2H75V35.1z"/>
	<g>
		<path class="st0" d="M22.7,34.9l-4.4,7.5h-1.1l4.8-8.1h1.4l4.8,8.1h-1.1L22.7,34.9z"/>
		<path class="st0" d="M21.6,40.5l1.1-1.8l1.1,1.8H21.6z"/>
	</g>
</g>
<g>
	<path class="st0" d="M28.5,23.9c-0.5,0-1-0.4-1-1V1c0-0.5,0.4-1,1-1c0.5,0,1,0.4,1,1v21.9C29.5,23.5,29.1,23.9,28.5,23.9z"/>
	<path class="st0" d="M44.6,1.8c2.7,0,5.2,1.1,7.2,3c1.9,1.9,3,4.4,3,7.2c0,2.7-1.1,5.2-3,7.2c-1.9,1.9-4.4,3-7.2,3
		c-2.7,0-5.2-1.1-7.2-3c-1.9-1.9-3-4.4-3-7.2c0-2.7,1.1-5.2,3-7.2C39.4,2.9,41.9,1.8,44.6,1.8z M44.6,0c-6.6,0-12,5.4-12,12
		c0,6.6,5.4,12,12,12c6.6,0,12-5.4,12-12C56.6,5.4,51.2,0,44.6,0z"/>
	<path class="st0" d="M24.1,0.3c-0.4-0.4-1-0.4-1.4,0l-22,22c-0.4,0.4-0.4,1,0,1.4c0.4,0.4,1,0.4,1.4,0L21.4,4.5
		c0,0,0.4-0.4,0.7-0.3c0.3,0.1,0.3,0.3,0.4,0.5v18.2c0,0.5,0.4,1,1,1c0.5,0,1-0.4,1-1V1c0,0,0,0,0,0C24.4,0.7,24.3,0.5,24.1,0.3z"/>
	<path class="st0" d="M80.2,1.7C80.2,1.7,80.2,1.7,80.2,1.7c0.2-0.2,0.3-0.5,0.3-0.7c0-0.5-0.4-1-1-1H57.6c-0.5,0-1,0.4-1,1
		c0,0.5,0.4,1,1,1h18.2c0.2,0,0.5,0.1,0.6,0.3c0.2,0.3-0.1,0.7-0.2,0.7L56.9,22.2c-0.4,0.4-0.4,1,0,1.4c0.2,0.2,0.3,0.2,0.5,0.3
		c0.1,0,0.1,0,0.2,0h21.9c0.5,0,1-0.4,1-1c0-0.5-0.4-1-1.1-1h-18c-0.1,0-0.5,0-0.7-0.3c-0.1-0.3,0.1-0.6,0.2-0.7L80.2,1.7z"/>
</g>
</svg>
