<?xml version="1.0" encoding="utf-8"?>
<!-- Generator: Adobe Illustrator 23.0.0, SVG Export Plug-In . SVG Version: 6.00 Build 0)  -->
<svg version="1.1" id="Layer_1" xmlns="http://www.w3.org/2000/svg" xmlns:xlink="http://www.w3.org/1999/xlink" x="0px" y="0px"
	 viewBox="0 0 320 43" style="enable-background:new 0 0 320 43;" xml:space="preserve">
<style type="text/css">
	.st0{fill:#1D58EC;}
	.st1{fill-rule:evenodd;clip-rule:evenodd;fill:#FFFFFF;}
</style>
<g>
	<g>
		<path class="st0" d="M36.3,8.5l-0.6,0.2L32.5,9l-0.9,1.4L31,10.3L28.4,8l-0.4-1.2l-0.5-1.3L26,4.1l-1.9-0.4l0,0.9l1.8,1.8l0.9,1.1
			l-1,0.5L25,7.7l-1.2-0.5l0-1l-1.6-0.7l-0.5,2.3L20,8.3l0.2,1.3l2.1,0.4l0.4-2.1l1.8,0.3l0.8,0.5h1.3l0.9,1.8l2.4,2.4l-0.2,0.9
			l-1.9-0.2l-3.3,1.7L22,18.1l-0.3,1.3h-0.9l-1.6-0.7l-1.6,0.7l0.4,1.6l0.7-0.8l1.2,0l-0.1,1.5l1,0.3l1,1.1l1.6-0.5l1.8,0.3l2.1,0.6
			l1.1,0.1l1.8,2l3.5,2l-2.2,4.3L29.1,33l-0.9,2.5l-3.4,2.3l-0.4,1.3c8.8-2.1,15.3-10,15.3-19.4C39.7,15.6,38.4,11.7,36.3,8.5z"/>
		<path class="st0" d="M22,30.1l-1.5-2.7l1.3-2.8l-1.3-0.4L19,22.7L15.7,22l-1.1-2.3v1.4h-0.5l-2.9-3.9V14l-2.1-3.4l-3.3,0.6H3.6
			l-1.1-0.7l1.4-1.1L2.4,9.6c-1.7,3-2.7,6.4-2.7,10.1c0,11,9,20,20,20c0.9,0,1.7-0.1,2.5-0.2L22,37.1c0,0,0.9-3.6,0.9-3.7
			C22.9,33.2,22,30.1,22,30.1z"/>
		<path class="st0" d="M7.1,6.1l3.6-0.5l1.6-0.9l1.8,0.5l2.9-0.2l1-1.6l1.5,0.2l3.6-0.3l1-1.1l1.4-0.9l2,0.3l0.7-0.1
			c-2.6-1.2-5.5-1.9-8.5-1.9c-6.2,0-11.8,2.8-15.4,7.3h0L7.1,6.1z M20.5,1.7l2-1.1l1.3,0.8L22,2.7l-1.8,0.2l-0.8-0.5L20.5,1.7z
			 M14.5,1.8l0.9,0.4l1.2-0.4l0.6,1.1l-2.7,0.7l-1.3-0.8C13.2,2.9,14.5,2.1,14.5,1.8z"/>
	</g>
	<path class="st1" d="M80.3,4.1c0.5,0.2,0.7,0.6,0.7,1.1v28.9c0,0.7-0.5,1.2-1.2,1.2c-0.7,0-1.2-0.5-1.2-1.2v-26L51.7,35
		c-0.5,0.5-1.2,0.5-1.7,0c-0.5-0.5-0.5-1.2,0-1.7l29-29C79.3,4,79.9,3.9,80.3,4.1z"/>
	<path class="st1" d="M86.6,4c0.7,0,1.2,0.5,1.2,1.2v28.9c0,0.7-0.5,1.2-1.2,1.2s-1.2-0.5-1.2-1.2V5.2C85.4,4.6,85.9,4,86.6,4z"/>
	<path class="st1" d="M107.7,33c7.4,0,13.3-6,13.3-13.3s-6-13.3-13.3-13.3c-7.4,0-13.3,6-13.3,13.3S100.3,33,107.7,33z M107.7,35.4
		c8.7,0,15.7-7,15.7-15.7c0-8.7-7-15.7-15.7-15.7C99,4,92,11,92,19.7C92,28.3,99,35.4,107.7,35.4z"/>
	<path class="st1" d="M123.4,5.2c0-0.7,0.5-1.2,1.2-1.2h28.9c0.5,0,0.9,0.3,1.1,0.7c0.2,0.4,0.1,1-0.3,1.3l-26.6,26.8h25.7
		c0.7,0,1.2,0.5,1.2,1.2s-0.5,1.2-1.2,1.2h-28.6c-0.5,0-0.9-0.3-1.1-0.7c-0.2-0.4-0.1-1,0.3-1.3l26.6-26.8h-26
		C124,6.4,123.4,5.9,123.4,5.2z"/>
	<path class="st0" d="M187.7,31.4h-15.2v-9.8h14.4v-4.1h-14.4V8.2h15.2V4h-20.1v31.7h20.1V31.4z M200.4,27.2l5.1,8.5h5.2L203.3,24
		l7.6-11.4h-5.2l-5,8.4h-0.1l-5.1-8.4h-5.3l7.5,11.6l-7.6,11.5h5.1l5.1-8.5H200.4z M225.4,12.2c-3.3,0-6,1.7-7.4,4.4H218v-4h-4.6
		v30.8h4.7V31.9h0.1c1.3,2.6,4,4.2,7.3,4.2c5.8,0,9.6-4.6,9.6-12S231.3,12.2,225.4,12.2z M224.2,32.1c-3.6,0-6.1-3.1-6.1-7.9
		c0-4.8,2.4-7.9,6.1-7.9c3.8,0,6.1,3.1,6.1,7.9C230.3,29,227.9,32.1,224.2,32.1z M238.6,35.7h4.7V4h-4.7V35.7z M257.7,36.1
		c6.6,0,11-4.5,11-12c0-7.4-4.4-12-11-12c-6.6,0-11,4.5-11,12C246.7,31.6,251.1,36.1,257.7,36.1z M257.7,32.2
		c-3.7,0-6.1-2.9-6.1-8.1c0-5.1,2.4-8.1,6.1-8.1c3.7,0,6.1,2.9,6.1,8.1C263.8,29.3,261.4,32.2,257.7,32.2z M271.8,35.7h4.7V21.8
		c0-3.3,1.9-5.3,4.9-5.3c0.9,0,1.8,0.1,2.1,0.3v-4.4c-0.4-0.1-0.9-0.2-1.6-0.2c-2.7,0-4.8,1.6-5.6,4.3h-0.1v-3.9h-4.5V35.7z
		 M300.5,28.9c-0.6,2-2.6,3.4-5.3,3.4c-3.8,0-6.2-2.7-6.2-6.7v-0.3h16.3v-1.6c0-7-4-11.5-10.4-11.5c-6.5,0-10.7,4.8-10.7,12.1
		c0,7.3,4.1,11.9,10.9,11.9c5.3,0,9.3-3,10-7.2H300.5z M294.8,16c3.3,0,5.6,2.5,5.7,6h-11.6C289.2,18.5,291.5,16,294.8,16z
		 M308.5,35.7h4.7V21.8c0-3.3,1.9-5.3,4.9-5.3c0.9,0,1.8,0.1,2.1,0.3v-4.4c-0.4-0.1-0.9-0.2-1.6-0.2c-2.7,0-4.8,1.6-5.6,4.3H313
		v-3.9h-4.5V35.7z"/>
</g>
</svg>
