<svg width="24" height="24" viewBox="0 0 24 24" fill="none" xmlns="http://www.w3.org/2000/svg">
<g clip-path="url(#clip0)">
<path d="M23 1H18.5V0.5C18.5 0.224 18.276 0 18 0H6C5.724 0 5.5 0.224 5.5 0.5V1H1C0.724 1 0.5 1.224 0.5 1.5V6C0.5 9.309 3.191 12 6.5 12C6.52 12 6.537 11.991 6.556 11.989C7.457 13.369 8.861 14.401 10.486 14.807C10.423 16.057 10.104 18.662 9.142 19.652L8.87 19.93C7.494 21.342 6.5 22.362 6.5 23.5C6.5 23.776 6.724 24 7 24H17C17.276 24 17.5 23.776 17.5 23.5C17.5 22.362 16.506 21.342 15.13 19.93L14.859 19.651C13.897 18.661 13.578 16.056 13.515 14.806C15.14 14.401 16.544 13.368 17.445 11.988C17.463 11.991 17.48 12 17.5 12C20.809 12 23.5 9.309 23.5 6V1.5C23.5 1.224 23.276 1 23 1ZM1.5 6V2H5.5V8.5C5.5 9.361 5.68 10.189 6 10.95C3.481 10.695 1.5 8.586 1.5 6ZM22.5 6C22.5 8.586 20.519 10.695 18 10.95C18.32 10.19 18.5 9.362 18.5 8.5V2H22.5V6Z" fill="#E7B70F"/>
<path d="M10.301 10H14.101C14.211 10 14.301 9.91 14.301 9.8V9.31C14.301 9.2 14.211 9.11 14.101 9.11H12.901C12.841 9.11 12.801 9.07 12.801 9.01V3.2C12.801 3.09 12.711 3 12.601 3H11.981C11.911 3 11.831 3.04 11.781 3.09L10.261 4.54C10.191 4.61 10.151 4.72 10.151 4.87V5.48C10.151 5.59 10.281 5.64 10.371 5.56L11.781 4.27C11.831 4.23 11.871 4.25 11.871 4.31V9.01C11.871 9.07 11.831 9.11 11.771 9.11H10.301C10.191 9.11 10.101 9.2 10.101 9.31V9.8C10.101 9.91 10.191 10 10.301 10Z" fill="black"/>
</g>
<defs>
<clipPath id="clip0">
<rect width="24" height="24" fill="white"/>
</clipPath>
</defs>
</svg>
