<?xml version="1.0" encoding="utf-8"?>
<!-- Generator: Adobe Illustrator 23.0.0, SVG Export Plug-In . SVG Version: 6.00 Build 0)  -->
<svg version="1.1" id="Capa_1" xmlns="http://www.w3.org/2000/svg" xmlns:xlink="http://www.w3.org/1999/xlink" x="0px" y="0px"
	 viewBox="0 0 60 60" style="enable-background:new 0 0 60 60;" xml:space="preserve">
<style type="text/css">
	.st0{fill:#FFFFFF;}
</style>
<path class="st0" d="M48.8,18.9C48.8,18.9,48.8,18.8,48.8,18.9c0-0.1,0-0.1,0-0.2c0,0,0,0,0-0.1c0,0,0-0.1,0-0.1c0,0,0,0,0-0.1
	c0,0,0-0.1-0.1-0.1c0,0,0,0-0.1,0c0,0,0,0-0.1,0c0,0,0,0,0,0c0,0,0,0,0,0l-18.8-9c-0.2-0.1-0.4-0.1-0.6,0l-17.4,9c0,0,0,0,0,0
	s0,0,0,0c0,0,0,0-0.1,0.1c0,0,0,0-0.1,0c0,0,0,0.1-0.1,0.1c0,0,0,0,0,0.1c0,0,0,0.1-0.1,0.1c0,0,0,0,0,0.1c0,0.1,0,0.1,0,0.2v22.3
	c0,0.3,0.1,0.5,0.4,0.6l18.1,9c0,0,0,0,0,0c0.1,0,0.2,0.1,0.3,0.1s0.2,0,0.3-0.1c0,0,0,0,0,0l18.1-9c0.2-0.1,0.4-0.4,0.4-0.6V18.9
	C48.8,18.9,48.8,18.9,48.8,18.9C48.8,18.9,48.8,18.9,48.8,18.9z M29.3,10.6l17.2,8.3L30,27.1l-16.6-8.3L29.3,10.6z M12.6,20
	l16.7,8.3V49l-16.7-8.3V20z M47.4,40.7L30.7,49V28.3L47.4,20V40.7z"/>
</svg>
