<?xml version="1.0" encoding="utf-8"?>
<!-- Generator: Adobe Illustrator 23.0.0, SVG Export Plug-In . SVG Version: 6.00 Build 0)  -->
<svg version="1.1" id="Layer_1" xmlns="http://www.w3.org/2000/svg" xmlns:xlink="http://www.w3.org/1999/xlink" x="0px" y="0px"
	 viewBox="0 0 24 22" style="enable-background:new 0 0 24 22;" xml:space="preserve">
<style type="text/css">
	.st0{fill:#FFFFFF;}
</style>
<path class="st0" d="M17.4,6.8l-1.2-1.3C16,5.4,16,5.2,16.2,5c0.1-0.1,0.4-0.1,0.5,0l1.7,1.7c0.3,0.3,0.3,0.7,0,1l-1.7,1.7
	c-0.1,0.2-0.4,0.2-0.5,0C16,9.3,16,9,16.2,8.9l1.2-1.3h-1.1c-1.5,0-2.4,0.8-4.1,3.3c1.7,2.4,2.6,3.3,4.1,3.3h1.1l-1.2-1.3
	c-0.1-0.2-0.1-0.4,0-0.5c0.1-0.1,0.4-0.1,0.5,0l1.7,1.7c0.1,0.1,0.2,0.3,0.2,0.5c0,0.2-0.1,0.4-0.2,0.5l-1.7,1.7
	c-0.1,0.2-0.4,0.2-0.5,0c-0.1-0.2-0.1-0.4,0-0.5l1.2-1.3h-1.1c-1.8,0-2.9-1-4.6-3.4C10,14,8.8,15,7.1,15H5.8c-0.2,0-0.4-0.2-0.4-0.4
	s0.2-0.4,0.4-0.4h1.3c1.5,0,2.4-0.8,4.1-3.3C9.5,8.5,8.6,7.6,7.1,7.6H5.8c-0.2,0-0.4-0.2-0.4-0.4c0-0.2,0.2-0.4,0.4-0.4h1.3
	c1.8,0,2.9,1,4.6,3.4c1.7-2.4,2.8-3.4,4.6-3.4H17.4z"/>
</svg>
