<?xml version="1.0" encoding="utf-8"?>
<!-- Generator: Adobe Illustrator 23.0.0, SVG Export Plug-In . SVG Version: 6.00 Build 0)  -->
<svg version="1.1" id="Layer_1" xmlns="http://www.w3.org/2000/svg" xmlns:xlink="http://www.w3.org/1999/xlink" x="0px" y="0px"
	 viewBox="0 0 93 93" style="enable-background:new 0 0 93 93;" xml:space="preserve">
<style type="text/css">
	.st0{fill:#1D58EC;}
	.st1{fill:#FFFFFF;}
</style>
<g>
	<circle class="st0" cx="46.5" cy="46.5" r="46.5"/>
</g>
<path class="st1" d="M-110,113.6L-89.9,75l0.1-0.1v-0.1c0,0,0-0.1,0.1-0.1c0,0,0.1-0.1,0.1-0.1c0,0,0-0.1,0.1-0.1
	c0.1-0.1,0.2-0.2,0.2-0.2v-0.1l0.3-0.3l0.1-0.1l0.1-0.1v-0.1l0.1-0.1l0.1-0.1l0.1-0.1l0.1-0.1l0.3-0.3h0.1c0,0,0.1-0.1,0.1-0.1
	c0.1-0.1,0.1-0.1,0.1-0.1c0.1,0,0.2,0,0.3-0.1h0.1l0.1-0.1l0.4-0.2l0.1-0.1c0.7-0.2,1.4-0.3,2.1-0.4h0.2c0.7,0,1.4,0.2,2.1,0.4
	l0.3,0.1l0.1,0.1h0.1l0.1,0.1l0.1,0.1h0.1c0.1,0.1,0.2,0.1,0.2,0.1h0.1c0.1,0.1,0.3,0.2,0.4,0.3l0.1,0.1l0.5,0.4h0.1l0.1,0.1v0.1
	l0.1,0.1l0.1,0.1V74V74l0.1,0.1v0.1l0.1,0.1c0,0,0.1,0.1,0.1,0.2c0,0,0.1,0.1,0.1,0.1c0.1,0.1,0.1,0.2,0.1,0.3h0.1V75l0.1,0.1
	l20.2,38.5c0.8,1.4,0.9,3,0.4,4.6c-0.5,1.6-1.5,2.8-3,3.5c-1.4,0.7-3,0.8-4.5,0.4s-2.7-1.4-3.5-2.9l-14.8-28.4l-14.9,28.4
	c-0.7,1.4-1.9,2.4-3.5,3c-1.6,0.5-3.1,0.3-4.6-0.4c-1.4-0.8-2.4-2-2.9-3.5C-110.9,116.5-110.8,115-110,113.6z M-78.6,113.6v2.7
	c0,1.7-0.6,3.1-1.8,4.3c-1.2,1.2-2.6,1.7-4.2,1.7c-1.6,0-3-0.6-4.2-1.7c-1.2-1.2-1.7-2.6-1.7-4.3v-2.7c0-1.7,0.6-3.1,1.7-4.3
	c1.2-1.2,2.6-1.7,4.2-1.7c1.7,0,3.1,0.6,4.2,1.7C-79.2,110.4-78.6,111.9-78.6,113.6z"/>
<g>
	<path class="st1" d="M29.1,63.5c0.3,0,0.6,0,0.8,0.1c0.2,0.1,0.5,0.2,0.8,0.2c0.3,0.1,0.6,0.2,1,0.2c0.4,0.1,0.8,0.1,1.4,0.1
		c1.7,0,3.6-0.2,5.8-0.6c2.1-0.4,4.1-0.8,6-1.4s3.5-1.3,4.8-2c1.3-0.8,2.1-1.5,2.3-2.3c0.1-0.4,0.2-0.8,0.2-1.2
		c0-0.6-0.3-1.2-0.9-1.8c-0.6-0.6-1.4-1.1-2.3-1.6c-0.9-0.5-1.9-1-3-1.4s-2.1-0.8-3-1.2l-1.9-0.8c-1-0.4-1.9-0.8-2.8-1.3
		c-0.9-0.5-1.8-1.1-2.6-1.8c-0.8-0.7-1.5-1.5-2.1-2.5c-0.6-0.9-1.1-2-1.3-3.2c-0.1-0.5-0.3-1-0.4-1.5c-0.1-0.5-0.1-1.1-0.1-1.7
		c0-1,0.3-2,1-3.3c0.6-1.2,1.5-2.4,2.6-3.7c1.1-1.2,2.3-2.4,3.7-3.5c1.4-1.1,2.8-2,4.3-2.8c1.1-0.8,2.2-1.5,3.2-2.1
		c1-0.6,2.1-1.2,3.1-1.6c1-0.4,2.1-0.8,3.2-1c1.1-0.3,2.2-0.4,3.4-0.4c1.1,0,2.3,0.1,3.6,0.2c1.3,0.1,2.5,0.4,3.5,0.8
		c1.1,0.4,2,1,2.7,1.8c0.7,0.8,1.1,1.8,1.1,3.2c0,0.4-0.1,0.9-0.2,1.6c-0.1,0.7-0.3,1.3-0.5,2c-0.3,0.7-0.6,1.2-0.9,1.7
		c-0.4,0.5-0.8,0.7-1.3,0.7c-0.8,0-1.5-0.2-2.1-0.5c-0.6-0.3-1-0.7-1.5-1.1c-0.4-0.4-0.9-0.7-1.4-1.1c-0.5-0.3-1.1-0.5-1.8-0.5
		c-0.8,0-1.8,0.2-2.9,0.5c-1.1,0.3-2.3,0.7-3.4,1.3c-1.2,0.5-2.3,1.1-3.4,1.8c-1.1,0.7-2.1,1.4-3,2.1c-0.9,0.7-1.6,1.5-2.2,2.2
		c-0.6,0.7-0.8,1.4-0.8,2c0,0.6,0.2,1.1,0.6,1.5c0.4,0.4,0.9,0.8,1.5,1c0.8,0.4,1.7,0.9,2.8,1.3c1,0.4,2.1,0.9,3.2,1.3
		s2.1,0.9,3.1,1.3s1.9,0.8,2.6,1.2c1,0.5,1.9,1,2.7,1.5c0.8,0.5,1.5,1,2,1.6c0.5,0.6,1,1.2,1.3,2c0.3,0.7,0.4,1.6,0.4,2.6
		c0,0.5,0,1-0.1,1.4c-0.1,0.5-0.2,1-0.3,1.7c-0.1,0.6-0.3,1.2-0.6,1.9c-0.3,0.7-0.6,1.5-0.9,2.2c-0.3,0.7-0.6,1.4-1,1.9
		c-0.3,0.6-0.6,0.9-0.8,1.1c-1.4,1.3-3.1,2.6-5.1,3.7c-1.9,1.2-4,2.2-6.1,3c-2.1,0.9-4.2,1.6-6.3,2.1c-2.1,0.5-4,0.8-5.8,0.8
		c-0.9,0-1.9-0.2-2.9-0.5c-1.1-0.3-2-0.8-2.9-1.4c-0.9-0.6-1.7-1.2-2.3-2c-0.6-0.7-0.9-1.5-0.9-2.2c0-0.4,0.1-0.8,0.3-1.2
		c0.2-0.5,0.5-0.9,0.8-1.3c0.3-0.4,0.7-0.7,1.1-1S28.8,63.5,29.1,63.5z"/>
</g>
</svg>
